:FULLY-SPECIFIED
:FORCE-ALL-JOINTS-BE-3DOF
:DEGREES
544
root 8.26392 14.0045 -3.49881 -180.318 47.0263 -182.638
lfemur -33.4279 -5.87452 -15.4746
ltibia 88.0387 0 0
lfoot -39.0746 -12.3544 0
ltoes -3.81211 0 0
rfemur -49.0412 -7.53216 -2.96404
rtibia 64.277 0 0
rfoot -9.41543 0.832987 0
rtoes -38.9688 0 0
lowerback 12.936 0.624652 1.67409
upperback 6.83985 1.95744 6.80456
thorax -0.245277 1.25867 5.95186
lowerneck -2.06032 -15.6554 -5.83017
upperneck 8.4763 -21.2403 8.59936
head 4.42642 -10.2885 2.2961
lclavicle 9.04488e-14 6.62538e-15 0
lhumerus -45.8925 -12.1076 103.67
lradius 55.5102 0 0
lwrist 30.8413 0 0
lhand -24.1624 -2.88717 0
lfingers 7.12502 0 0
lthumb 2.32027 27.071 0
rclavicle 9.04488e-14 6.62538e-15 0
rhumerus 6.57387 19.3158 -88.5847
rradius 134.828 0 0
rwrist -44.987 0 0
rhand -28.7967 -22.7507 0
rfingers 7.12502 0 0
rthumb -2.1554 -772.712 0
545
root 8.3064 13.9613 -3.47227 -180.499 46.6867 -182.762
lfemur -33.5462 -5.88082 -15.2483
ltibia 88.5257 0 0
lfoot -39.3532 -12.891 0
ltoes -3.69932 0 0
rfemur -49.0728 -7.85525 -2.90239
rtibia 64.9498 0 0
rfoot -10.1396 0.523476 0
rtoes -39.0358 0 0
lowerback 12.963 0.613799 1.6677
upperback 6.91147 1.94876 6.80494
thorax -0.183986 1.25713 5.95804
lowerneck -1.93663 -15.6464 -5.80367
upperneck 8.32843 -21.2385 8.7127
head 4.36989 -10.2883 2.34131
lclavicle 9.48486e-14 6.48269e-15 0
lhumerus -45.9559 -11.6095 103.325
lradius 55.3531 0 0
lwrist 31.2461 0 0
lhand -24.4243 -2.75608 0
lfingers 7.12502 0 0
lthumb 2.06741 27.2094 0
rclavicle 9.48486e-14 6.48269e-15 0
rhumerus 6.31041 19.5612 -89.0147
rradius 134.77 0 0
rwrist -44.8814 0 0
rhand -29.0485 -22.8017 0
rfingers 7.12502 0 0
rthumb -2.39854 -772.764 0
546
root 8.33324 13.934 -3.4555 -180.613 46.4721 -182.841
lfemur -33.6209 -5.8848 -15.1054
ltibia 88.8334 0 0
lfoot -39.5292 -13.2299 0
ltoes -3.62807 0 0
rfemur -49.0927 -8.05937 -2.86345
rtibia 65.3749 0 0
rfoot -10.5971 0.327937 0
rtoes -39.0781 0 0
lowerback 12.98 0.606942 1.66366
upperback 6.95673 1.94327 6.80519
thorax -0.145264 1.25616 5.96195
lowerneck -1.85849 -15.6408 -5.78693
upperneck 8.235 -21.2374 8.7843
head 4.33417 -10.2881 2.36987
lclavicle 9.76283e-14 6.39253e-15 0
lhumerus -45.996 -11.2948 103.108
lradius 55.2538 0 0
lwrist 31.5018 0 0
lhand -24.5898 -2.67327 0
lfingers 7.12502 0 0
lthumb 1.90766 27.2968 0
rclavicle 9.76283e-14 6.39253e-15 0
rhumerus 6.14396 19.7162 -89.2863
rradius 134.733 0 0
rwrist -44.8147 0 0
rhand -29.2076 -22.8339 0
rfingers 7.12502 0 0
rthumb -2.55216 -772.797 0
547
root 8.3426 13.9245 -3.44966 -180.653 46.3973 -182.868
lfemur -33.6469 -5.88619 -15.0556
ltibia 88.9407 0 0
lfoot -39.5906 -13.3481 0
ltoes -3.60323 0 0
rfemur -49.0997 -8.13052 -2.84987
rtibia 65.5231 0 0
rfoot -10.7566 0.259778 0
rtoes -39.0929 0 0
lowerback 12.986 0.604552 1.66225
upperback 6.9725 1.94136 6.80527
thorax -0.131767 1.25582 5.96331
lowerneck -1.83125 -15.6388 -5.78109
upperneck 8.20244 -21.237 8.80926
head 4.32172 -10.2881 2.37983
lclavicle 9.85972e-14 6.36111e-15 0
lhumerus -46.01 -11.1851 103.032
lradius 55.2192 0 0
lwrist 31.5909 0 0
lhand -24.6475 -2.6444 0
lfingers 7.12502 0 0
lthumb 1.85197 27.3273 0
rclavicle 9.85972e-14 6.36111e-15 0
rhumerus 6.08594 19.7702 -89.381
rradius 134.72 0 0
rwrist -44.7914 0 0
rhand -29.263 -22.8451 0
rfingers 7.12502 0 0
rthumb -2.6057 -772.809 0
548
root 8.33756 13.9378 -3.45037 -180.6 46.5281 -182.843
lfemur -33.5633 -5.82672 -15.0729
ltibia 88.7183 0 0
lfoot -39.5694 -13.2585 0
ltoes -3.60637 0 0
rfemur -49.0859 -8.12131 -2.78242
rtibia 65.3208 0 0
rfoot -10.6024 0.327554 0
rtoes -39.0804 0 0
lowerback 12.9534 0.595659 1.6419
upperback 6.94722 1.92307 6.78818
thorax -0.138627 1.24511 5.95862
lowerneck -1.84532 -15.6285 -5.77228
upperneck 8.21002 -21.2224 8.78821
head 4.32233 -10.2812 2.37273
lclavicle 9.81651e-14 6.08353e-15 0
lhumerus -46.0054 -11.188 103.006
lradius 55.2158 0 0
lwrist 31.5236 0 0
lhand -24.6335 -2.66675 0
lfingers 7.12502 0 0
lthumb 1.86553 27.3048 0
rclavicle 9.81651e-14 6.08353e-15 0
rhumerus 6.21167 19.7545 -89.29
rradius 134.716 0 0
rwrist -44.7857 0 0
rhand -29.247 -22.8372 0
rfingers 7.12502 0 0
rthumb -2.59022 -772.801 0
549
root 8.32309 13.9759 -3.45241 -180.447 46.9033 -182.771
lfemur -33.3233 -5.65609 -15.1224
ltibia 88.0802 0 0
lfoot -39.5087 -13.0016 0
ltoes -3.61536 0 0
rfemur -49.0464 -8.09488 -2.5889
rtibia 64.7403 0 0
rfoot -10.16 0.521993 0
rtoes -39.0446 0 0
lowerback 12.86 0.570145 1.5835
upperback 6.8747 1.87059 6.73916
thorax -0.158307 1.21438 5.94516
lowerneck -1.8857 -15.5988 -5.74702
upperneck 8.23178 -21.1806 8.72781
head 4.32408 -10.2615 2.35236
lclavicle 9.69255e-14 5.28719e-15 0
lhumerus -45.9923 -11.1964 102.93
lradius 55.206 0 0
lwrist 31.3307 0 0
lhand -24.5932 -2.73085 0
lfingers 7.12502 0 0
lthumb 1.90444 27.2401 0
rclavicle 9.69255e-14 5.28719e-15 0
rhumerus 6.57238 19.7096 -89.029
rradius 134.703 0 0
rwrist -44.7695 0 0
rhand -29.201 -22.8145 0
rfingers 7.12502 0 0
rthumb -2.5458 -772.779 0
550
root 8.30018 14.0362 -3.45564 -180.204 47.4971 -182.657
lfemur -32.9435 -5.38602 -15.2009
ltibia 87.0702 0 0
lfoot -39.4125 -12.5949 0
ltoes -3.6296 0 0
rfemur -48.9839 -8.05304 -2.28259
rtibia 63.8215 0 0
rfoot -9.4597 0.829763 0
rtoes -38.9879 0 0
lowerback 12.712 0.52976 1.49107
upperback 6.7599 1.78752 6.66157
thorax -0.189458 1.16574 5.92385
lowerneck -1.94962 -15.5519 -5.70702
upperneck 8.26622 -21.1143 8.63221
head 4.32685 -10.2304 2.32012
lclavicle 9.49634e-14 4.0267e-15 0
lhumerus -45.9715 -11.2098 102.811
lradius 55.1905 0 0
lwrist 31.0253 0 0
lhand -24.5294 -2.83233 0
lfingers 7.12502 0 0
lthumb 1.96603 27.1378 0
rclavicle 9.49634e-14 4.0267e-15 0
rhumerus 7.14333 19.6385 -88.6158
rradius 134.683 0 0
rwrist -44.7438 0 0
rhand -29.1282 -22.7786 0
rfingers 7.12502 0 0
rthumb -2.47549 -772.743 0
551
root 8.26984 14.1162 -3.45992 -179.883 48.2839 -182.505
lfemur -32.4403 -5.0282 -15.3049
ltibia 85.732 0 0
lfoot -39.2851 -12.056 0
ltoes -3.64846 0 0
rfemur -48.901 -7.99762 -1.87677
rtibia 62.6042 0 0
rfoot -8.53189 1.23753 0
rtoes -38.9127 0 0
lowerback 12.516 0.476254 1.36861
upperback 6.60781 1.67746 6.55877
thorax -0.230731 1.10129 5.89563
lowerneck -2.0343 -15.4898 -5.65403
upperneck 8.31184 -21.0266 8.50554
head 4.33052 -10.1891 2.2774
lclavicle 9.23639e-14 2.35666e-15 0
lhumerus -45.944 -11.2274 102.653
lradius 55.1699 0 0
lwrist 30.6206 0 0
lhand -24.4449 -2.96677 0
lfingers 7.12502 0 0
lthumb 2.04763 27.0023 0
rclavicle 9.23639e-14 2.35666e-15 0
rhumerus 7.89979 19.5444 -88.0683
rradius 134.657 0 0
rwrist -44.7097 0 0
rhand -29.0317 -22.731 0
rfingers 7.12502 0 0
rthumb -2.38234 -772.696 0
552
root 8.23304 14.2131 -3.46511 -179.494 49.2379 -182.322
lfemur -31.8302 -4.59432 -15.4309
ltibia 84.1094 0 0
lfoot -39.1306 -11.4026 0
ltoes -3.67134 0 0
rfemur -48.8006 -7.93041 -1.38468
rtibia 61.1281 0 0
rfoot -7.4069 1.73196 0
rtoes -38.8216 0 0
lowerback 12.2783 0.411377 1.22013
upperback 6.4234 1.54402 6.43412
thorax -0.280775 1.02315 5.8614
lowerneck -2.13698 -15.4145 -5.58978
upperneck 8.36716 -20.9202 8.35196
head 4.33497 -10.139 2.2256
lclavicle 8.92118e-14 3.31679e-16 0
lhumerus -45.9106 -11.2488 102.461
lradius 55.145 0 0
lwrist 30.1299 0 0
lhand -24.3425 -3.12979 0
lfingers 7.12502 0 0
lthumb 2.14658 26.8379 0
rclavicle 8.92118e-14 3.31679e-16 0
rhumerus 8.81701 19.4301 -87.4045
rradius 134.625 0 0
rwrist -44.6684 0 0
rhand -28.9148 -22.6733 0
rfingers 7.12502 0 0
rthumb -2.26939 -772.639 0
553
root 8.19079 14.3244 -3.47107 -179.047 50.3334 -182.111
lfemur -31.1296 -4.0961 -15.5757
ltibia 82.2461 0 0
lfoot -38.9532 -10.6523 0
ltoes -3.69761 0 0
rfemur -48.6852 -7.85324 -0.81962
rtibia 59.4331 0 0
rfoot -6.11505 2.29972 0
rtoes -38.717 0 0
lowerback 12.0054 0.336877 1.04962
upperback 6.21163 1.39078 6.29098
thorax -0.338242 0.933421 5.8221
lowerneck -2.25488 -15.3279 -5.516
upperneck 8.43069 -20.798 8.1756
head 4.34008 -10.0815 2.16612
lclavicle 8.55922e-14 -1.99363e-15 0
lhumerus -45.8722 -11.2733 102.241
lradius 55.1164 0 0
lwrist 29.5665 0 0
lhand -24.2248 -3.31698 0
lfingers 7.12502 0 0
lthumb 2.2602 26.6492 0
rclavicle 8.55922e-14 -1.99363e-15 0
rhumerus 9.87028 19.299 -86.6422
rradius 134.588 0 0
rwrist -44.621 0 0
rhand -28.7805 -22.607 0
rfingers 7.12502 0 0
rthumb -2.13969 -772.574 0
554
root 8.14407 14.4475 -3.47766 -178.552 51.5447 -181.878
lfemur -30.3549 -3.54523 -15.7357
ltibia 80.186 0 0
lfoot -38.7571 -9.82267 0
ltoes -3.72665 0 0
rfemur -48.5576 -7.76791 -0.194843
rtibia 57.559 0 0
rfoot -4.68669 2.92748 0
rtoes -38.6014 0 0
lowerback 11.7036 0.254504 0.861092
upperback 5.97749 1.22135 6.13272
thorax -0.401781 0.834207 5.77864
lowerneck -2.38525 -15.2323 -5.43442
upperneck 8.50093 -20.6628 7.98059
head 4.34574 -10.0179 2.10035
lclavicle 8.15901e-14 -4.56467e-15 0
lhumerus -45.8298 -11.3005 101.998
lradius 55.0847 0 0
lwrist 28.9435 0 0
lhand -24.0947 -3.52396 0
lfingers 7.12502 0 0
lthumb 2.38582 26.4405 0
rclavicle 8.15901e-14 -4.56467e-15 0
rhumerus 11.0349 19.154 -85.7994
rradius 134.548 0 0
rwrist -44.5685 0 0
rhand -28.632 -22.5337 0
rfingers 7.12502 0 0
rthumb -1.99628 -772.502 0
555
root 8.09389 14.5797 -3.48474 -178.021 52.8461 -181.628
lfemur -29.5227 -2.95341 -15.9076
ltibia 77.9727 0 0
lfoot -38.5464 -8.93141 0
ltoes -3.75785 0 0
rfemur -48.4206 -7.67624 0.476378
rtibia 55.5456 0 0
rfoot -3.15215 3.60191 0
rtoes -38.4771 0 0
lowerback 11.3794 0.166008 0.65855
upperback 5.72594 1.03932 5.96269
thorax -0.470044 0.727619 5.73196
lowerneck -2.52531 -15.1295 -5.34678
upperneck 8.57639 -20.5177 7.7711
head 4.35181 -9.94954 2.02969
lclavicle 7.72905e-14 -7.32684e-15 0
lhumerus -45.7843 -11.3297 101.736
lradius 55.0507 0 0
lwrist 28.2742 0 0
lhand -23.955 -3.74632 0
lfingers 7.12502 0 0
lthumb 2.52078 26.2163 0
rclavicle 7.72905e-14 -7.32684e-15 0
rhumerus 12.286 18.9982 -84.8939
rradius 134.504 0 0
rwrist -44.5122 0 0
rhand -28.4725 -22.455 0
rfingers 7.12502 0 0
rthumb -1.84221 -772.424 0
556
root 8.04122 14.7184 -3.49216 -177.464 54.2117 -181.365
lfemur -28.6493 -2.33234 -16.0881
ltibia 75.65 0 0
lfoot -38.3252 -7.99609 0
ltoes -3.79059 0 0
rfemur -48.2768 -7.58004 1.18077
rtibia 53.4327 0 0
rfoot -1.54177 4.30967 0
rtoes -38.3467 0 0
lowerback 11.0392 0.0731377 0.445998
upperback 5.46196 0.848293 5.78426
thorax -0.54168 0.615762 5.68296
lowerneck -2.67228 -15.0217 -5.25481
upperneck 8.65558 -20.3654 7.55125
head 4.35818 -9.87785 1.95554
lclavicle 7.27784e-14 -1.02255e-14 0
lhumerus -45.7365 -11.3603 101.462
lradius 55.015 0 0
lwrist 27.5719 0 0
lhand -23.8083 -3.97967 0
lfingers 7.12502 0 0
lthumb 2.66242 25.9811 0
rclavicle 7.27784e-14 -1.02255e-14 0
rhumerus 13.599 18.8347 -83.9437
rradius 134.459 0 0
rwrist -44.453 0 0
rhand -28.3051 -22.3724 0
rfingers 7.12502 0 0
rthumb -1.68053 -772.343 0
